<svg width="60" height="60" viewBox="0 0 60 60" fill="none" xmlns="http://www.w3.org/2000/svg">
<g clip-path="url(#clip0_404_839)">
<path d="M30 55C16.225 55 5 43.775 5 30C5 16.225 16.225 5 30 5C43.775 5 55 15.1 55 27.5C55 35.775 48.275 42.5 40 42.5H35.575C34.875 42.5 34.325 43.05 34.325 43.75C34.325 44.05 34.45 44.325 34.65 44.575C35.675 45.75 36.25 47.225 36.25 48.75C36.25 52.2 33.45 55 30 55V55ZM30 10C18.975 10 10 18.975 10 30C10 41.025 18.975 50 30 50C30.7 50 31.25 49.45 31.25 48.75C31.25 48.35 31.05 48.05 30.9 47.875C29.875 46.725 29.325 45.25 29.325 43.75C29.325 40.3 32.125 37.5 35.575 37.5H40C45.525 37.5 50 33.025 50 27.5C50 17.85 41.025 10 30 10Z" fill="#F5821E"/>
<path d="M16.25 32.5C18.3211 32.5 20 30.8211 20 28.75C20 26.6789 18.3211 25 16.25 25C14.1789 25 12.5 26.6789 12.5 28.75C12.5 30.8211 14.1789 32.5 16.25 32.5Z" fill="#F5821E"/>
<path d="M23.75 22.5C25.8211 22.5 27.5 20.8211 27.5 18.75C27.5 16.6789 25.8211 15 23.75 15C21.6789 15 20 16.6789 20 18.75C20 20.8211 21.6789 22.5 23.75 22.5Z" fill="#F5821E"/>
<path d="M36.25 22.5C38.3211 22.5 40 20.8211 40 18.75C40 16.6789 38.3211 15 36.25 15C34.1789 15 32.5 16.6789 32.5 18.75C32.5 20.8211 34.1789 22.5 36.25 22.5Z" fill="#F5821E"/>
<path d="M43.75 32.5C45.8211 32.5 47.5 30.8211 47.5 28.75C47.5 26.6789 45.8211 25 43.75 25C41.6789 25 40 26.6789 40 28.75C40 30.8211 41.6789 32.5 43.75 32.5Z" fill="#F5821E"/>
</g>
<defs>
<clipPath id="clip0_404_839">
<rect width="60" height="60" fill="white"/>
</clipPath>
</defs>
</svg>
