<svg width="40" height="46" viewBox="0 0 40 46" fill="none" xmlns="http://www.w3.org/2000/svg">
<path d="M39.8496 15.65C38.7746 7.475 31.7746 1 23.5246 0.525C23.1746 0.5 22.8496 0.5 22.4996 0.5C13.6746 0.5 6.42462 7.025 5.19962 15.5L0.374618 24.2C-0.650382 25.85 0.549618 28 2.49962 28H4.99962V33C4.99962 35.75 7.24962 38 9.99962 38H12.4996V45.5H29.9996V33.8C36.5496 30.675 40.8746 23.6 39.8496 15.65ZM27.2246 29.575L24.9996 30.625V40.5H17.4996V33H9.99962V23H6.74962L10.0746 17.175C10.5246 10.65 15.8746 5.5 22.4996 5.5C29.3996 5.5 34.9996 11.1 34.9996 18C34.9996 23.225 31.7746 27.7 27.2246 29.575Z" fill="#F5821E"/>
</svg>
