<svg width="20" height="20" viewBox="0 0 20 20" fill="none" xmlns="http://www.w3.org/2000/svg">
<circle cx="10" cy="10" r="10" fill="#3C4043"/>
<g clip-path="url(#clip0_679_3494)">
<path d="M11.6672 10.9525H11.291L11.1577 10.8239C11.6244 10.281 11.9053 9.57626 11.9053 8.80959C11.9053 7.10007 10.5196 5.71436 8.81008 5.71436C7.10056 5.71436 5.71484 7.10007 5.71484 8.80959C5.71484 10.5191 7.10056 11.9048 8.81008 11.9048C9.57675 11.9048 10.2815 11.6239 10.8244 11.1572L10.9529 11.2905V11.6667L13.3339 14.0429L14.0434 13.3334L11.6672 10.9525V10.9525ZM8.81008 10.9525C7.62437 10.9525 6.66722 9.99531 6.66722 8.80959C6.66722 7.62388 7.62437 6.66674 8.81008 6.66674C9.9958 6.66674 10.9529 7.62388 10.9529 8.80959C10.9529 9.99531 9.9958 10.9525 8.81008 10.9525Z" fill="white"/>
</g>
<defs>
<clipPath id="clip0_679_3494">
<rect width="11.4286" height="11.4286" fill="white" transform="translate(4.28613 4.28564)"/>
</clipPath>
</defs>
</svg>
