<svg width="60" height="30" viewBox="0 0 60 30" fill="none" xmlns="http://www.w3.org/2000/svg">
<path d="M10 17.5C12.75 17.5 15 15.25 15 12.5C15 9.75003 12.75 7.50003 10 7.50003C7.25 7.50003 5 9.75003 5 12.5C5 15.25 7.25 17.5 10 17.5ZM12.825 20.25C11.9 20.1 10.975 20 10 20C7.525 20 5.175 20.525 3.05 21.45C1.2 22.25 0 24.05 0 26.075V30H11.25V25.975C11.25 23.9 11.825 21.95 12.825 20.25ZM50 17.5C52.75 17.5 55 15.25 55 12.5C55 9.75003 52.75 7.50003 50 7.50003C47.25 7.50003 45 9.75003 45 12.5C45 15.25 47.25 17.5 50 17.5ZM60 26.075C60 24.05 58.8 22.25 56.95 21.45C54.825 20.525 52.475 20 50 20C49.025 20 48.1 20.1 47.175 20.25C48.175 21.95 48.75 23.9 48.75 25.975V30H60V26.075ZM40.6 19.125C37.675 17.825 34.075 16.875 30 16.875C25.925 16.875 22.325 17.85 19.4 19.125C16.7 20.325 15 23.025 15 25.975V30H45V25.975C45 23.025 43.3 20.325 40.6 19.125ZM20.175 25C20.4 24.425 20.5 24.025 22.45 23.275C24.875 22.325 27.425 21.875 30 21.875C32.575 21.875 35.125 22.325 37.55 23.275C39.475 24.025 39.575 24.425 39.825 25H20.175ZM30 5.00003C31.375 5.00003 32.5 6.12503 32.5 7.50003C32.5 8.87503 31.375 10 30 10C28.625 10 27.5 8.87503 27.5 7.50003C27.5 6.12503 28.625 5.00003 30 5.00003ZM30 3.05176e-05C25.85 3.05176e-05 22.5 3.35003 22.5 7.50003C22.5 11.65 25.85 15 30 15C34.15 15 37.5 11.65 37.5 7.50003C37.5 3.35003 34.15 3.05176e-05 30 3.05176e-05Z" fill="#F5821E"/>
</svg>
