<svg width="46" height="46" viewBox="0 0 46 46" fill="none" xmlns="http://www.w3.org/2000/svg">
<path d="M40.5 5.5V40.5H5.5V5.5H40.5ZM40.5 0.5H5.5C2.725 0.5 0.5 2.75 0.5 5.5V40.5C0.5 43.25 2.725 45.5 5.5 45.5H40.5C43.25 45.5 45.5 43.25 45.5 40.5V5.5C45.5 2.75 43.25 0.5 40.5 0.5ZM23 23C18.875 23 15.5 19.625 15.5 15.5C15.5 11.375 18.875 8 23 8C27.125 8 30.5 11.375 30.5 15.5C30.5 19.625 27.125 23 23 23ZM23 13C21.625 13 20.5 14.125 20.5 15.5C20.5 16.875 21.625 18 23 18C24.375 18 25.5 16.875 25.5 15.5C25.5 14.125 24.375 13 23 13ZM38 38H8V34.175C8 27.925 17.925 25.225 23 25.225C28.075 25.225 38 27.925 38 34.175V38ZM13.775 33H32.225C30.5 31.6 26.275 30.2 23 30.2C19.725 30.2 15.475 31.6 13.775 33V33Z" fill="#F5821E"/>
</svg>
