<svg width="50" height="51" viewBox="0 0 50 51" fill="none" xmlns="http://www.w3.org/2000/svg">
<path d="M25 0.0618286C11.2 0.0618286 0 11.2618 0 25.0618C0 38.8618 11.2 50.0618 25 50.0618C38.8 50.0618 50 38.8618 50 25.0618C50 11.2618 38.8 0.0618286 25 0.0618286ZM27.5 8.31183L30.875 5.93683C35.425 7.33683 39.3 10.3368 41.825 14.2868L40.85 17.6368L37.475 18.7868L27.5 11.8118V8.31183ZM19.125 5.93683L22.5 8.31183V11.8118L12.525 18.7868L9.15 17.6368L8.175 14.2868C10.7 10.3618 14.575 7.36183 19.125 5.93683ZM12.7 37.8368L9.85 38.0868C6.825 34.5868 5 30.0368 5 25.0618C5 24.7618 5.025 24.4868 5.05 24.1868L7.55 22.3618L11 23.5618L14.65 34.4118L12.7 37.8368ZM31.25 44.0368C29.275 44.6868 27.175 45.0618 25 45.0618C22.825 45.0618 20.725 44.6868 18.75 44.0368L17.025 40.3118L18.625 37.5618H31.4L33 40.3368L31.25 44.0368ZM30.675 32.5618H19.325L15.95 22.5118L25 16.1618L34.075 22.5118L30.675 32.5618ZM40.15 38.0868L37.3 37.8368L35.325 34.4118L38.975 23.5618L42.45 22.3868L44.95 24.2118C44.975 24.4868 45 24.7618 45 25.0618C45 30.0368 43.175 34.5868 40.15 38.0868Z" fill="#F5821E"/>
</svg>
